<?xml version="1.0" encoding="UTF-8" standalone="no"?>
<!-- Created with Inkscape (http://www.inkscape.org/) -->

<svg
   xmlns:dc="http://purl.org/dc/elements/1.1/"
   xmlns:cc="http://creativecommons.org/ns#"
   xmlns:rdf="http://www.w3.org/1999/02/22-rdf-syntax-ns#"
   xmlns:svg="http://www.w3.org/2000/svg"
   xmlns="http://www.w3.org/2000/svg"
   xmlns:sodipodi="http://sodipodi.sourceforge.net/DTD/sodipodi-0.dtd"
   xmlns:inkscape="http://www.inkscape.org/namespaces/inkscape"
   width="3355.3054"
   height="473.26828"
   viewBox="0 0 3355.3055 473.26827"
   id="svg2"
   version="1.1"
   inkscape:version="0.91 r13725"
   sodipodi:docname="JonDotsoy.svg">
  <defs
     id="defs4" />
  <sodipodi:namedview
     id="base"
     pagecolor="#ffffff"
     bordercolor="#666666"
     borderopacity="1.0"
     inkscape:pageopacity="0.0"
     inkscape:pageshadow="2"
     inkscape:zoom="0.12760482"
     inkscape:cx="1552.6253"
     inkscape:cy="1109.9584"
     inkscape:document-units="px"
     inkscape:current-layer="layer1"
     showgrid="false"
     units="px"
     fit-margin-top="0"
     fit-margin-left="0"
     fit-margin-right="0"
     fit-margin-bottom="0"
     inkscape:window-width="1366"
     inkscape:window-height="715"
     inkscape:window-x="-8"
     inkscape:window-y="22"
     inkscape:window-maximized="1" />
  <metadata
     id="metadata7">
    <rdf:RDF>
      <cc:Work
         rdf:about="">
        <dc:format>image/svg+xml</dc:format>
        <dc:type
           rdf:resource="http://purl.org/dc/dcmitype/StillImage" />
        <dc:title></dc:title>
      </cc:Work>
    </rdf:RDF>
  </metadata>
  <g
     inkscape:label="Capa 1"
     inkscape:groupmode="layer"
     id="layer1"
     transform="translate(-14.9403,450.40633)">
    <rect
       style="opacity:0.5;fill:#3b5998;fill-opacity:1;stroke:none;stroke-width:2;stroke-linecap:round;stroke-linejoin:round;stroke-miterlimit:4;stroke-dasharray:none;stroke-dashoffset:0;stroke-opacity:1"
       id="rect3558"
       width="0"
       height="0"
       x="128.47069"
       y="1012.9921" />
    <g
       id="g5259"
       transform="translate(-1471.5766,-833.39289)">
      <g
         transform="matrix(0.99930844,0,0,0.99930844,1486.5169,-296.83223)"
         id="g4894">
        <path
           style="opacity:1;fill:#ffeb3b;fill-opacity:1;stroke:none;stroke-width:2;stroke-linecap:round;stroke-linejoin:round;stroke-miterlimit:4;stroke-dasharray:none;stroke-dashoffset:0;stroke-opacity:1"
           d="m 35,680.28989 c -19.329966,0 -35,15.67003 -35,35 0,19.32997 15.670034,35 35,35 16.132412,-0.0197 263.86613,-0.0179 280,0 19.32997,0 35,-15.67003 35,-35 0,-19.32997 -15.67003,-35 -35,-35 -12.85009,0.003 -267.160419,0.0142 -280,0 z"
           id="path4056"
           inkscape:connector-curvature="0"
           sodipodi:nodetypes="csccscc" />
        <path
           style="opacity:1;fill:#00bcd4;fill-opacity:1;stroke:none;stroke-width:2;stroke-linecap:round;stroke-linejoin:round;stroke-miterlimit:4;stroke-dasharray:none;stroke-dashoffset:0;stroke-opacity:1"
           d="m 415,680.28989 c -19.32997,0 -35,15.67003 -35,35 0,19.32997 15.67003,35 35,35 14.43146,-0.0164 108.0406,-2.9e-4 122.48633,0 19.32997,0 35,-15.67003 35,-35 0,-19.32997 -15.67003,-35 -35,-35 -16.85533,0.0118 -105.62953,0.01 -122.48633,0 z"
           id="path4054"
           inkscape:connector-curvature="0"
           sodipodi:nodetypes="csccscc" />
        <path
           style="opacity:1;fill:#f44336;fill-opacity:1;stroke:none;stroke-width:2;stroke-linecap:round;stroke-linejoin:round;stroke-miterlimit:4;stroke-dasharray:none;stroke-dashoffset:0;stroke-opacity:1"
           d="m 35,780.28989 c -19.329966,0 -35,15.67003 -35,35 0,19.32997 15.670034,35 35,35 17.396452,-0.0213 92.60132,-0.0184 110,0 19.32997,0 35,-15.67003 35,-35 0,-19.32997 -15.67003,-35 -35,-35 -13.28145,0.0182 -96.707986,0.007 -110,0 z"
           id="path4052"
           inkscape:connector-curvature="0"
           sodipodi:nodetypes="csccscc" />
        <path
           style="opacity:1;fill:#ffa726;fill-opacity:1;stroke:none;stroke-width:2;stroke-linecap:round;stroke-linejoin:round;stroke-miterlimit:4;stroke-dasharray:none;stroke-dashoffset:0;stroke-opacity:1"
           d="m 245,780.28989 c -19.32997,0 -35,15.67003 -35,35 0,19.32997 15.67003,35 35,35 14.01103,-0.003 278.48737,-0.0167 292.48633,0 19.32997,0 35,-15.67003 35,-35 0,-19.32997 -15.67003,-35 -35,-35 -16.72104,0.004 -275.7741,0.0157 -292.48633,0 z"
           id="path4050"
           inkscape:connector-curvature="0"
           sodipodi:nodetypes="csccscc" />
        <path
           style="opacity:1;fill:#ff5722;fill-opacity:1;stroke:none;stroke-width:2;stroke-linecap:round;stroke-linejoin:round;stroke-miterlimit:4;stroke-dasharray:none;stroke-dashoffset:0;stroke-opacity:1"
           d="m 35,880.28989 c -19.329966,0 -35,15.67003 -35,35 0,19.32997 15.670034,35 35,35 15.29869,-0.003 184.71357,-0.0172 200,0 19.32997,0 35,-15.67003 35,-35 0,-19.32997 -15.67003,-35 -35,-35 -10.65591,0.0135 -189.329705,10e-4 -200,0 z"
           id="path4048"
           inkscape:connector-curvature="0"
           sodipodi:nodetypes="csccscc" />
        <path
           style="opacity:1;fill:#9ccc65;fill-opacity:1;stroke:none;stroke-width:2;stroke-linecap:round;stroke-linejoin:round;stroke-miterlimit:4;stroke-dasharray:none;stroke-dashoffset:0;stroke-opacity:1"
           d="m 335,880.28989 c -19.32997,0 -35,15.67003 -35,35 0,19.32997 15.67003,35 35,35 12.3708,-0.0163 190.11622,-0.017 202.48633,0 19.32997,0 35,-15.67003 35,-35 0,-19.32997 -15.67003,-35 -35,-35 -18.26089,0.0147 -184.21943,0.007 -202.48633,0 z"
           id="path4046"
           inkscape:connector-curvature="0"
           sodipodi:nodetypes="csccscc" />
        <path
           style="opacity:1;fill:#212121;fill-opacity:1;stroke:none;stroke-width:2;stroke-linecap:round;stroke-linejoin:round;stroke-miterlimit:4;stroke-dasharray:none;stroke-dashoffset:0;stroke-opacity:1"
           d="m 35,982.36216 c -19.329982,0 -35.000022091408,15.67006 -35,35.00004 0,19.33 15.670034,35 35,35 19.329966,0 35,-15.67 35,-35 2.2e-5,-19.32998 -15.670018,-35.00004 -35,-35.00004 z"
           id="path4044"
           inkscape:connector-curvature="0"
           sodipodi:nodetypes="sssss" />
        <path
           style="opacity:1;fill:#0091ea;fill-opacity:1;stroke:none;stroke-width:2;stroke-linecap:round;stroke-linejoin:round;stroke-miterlimit:4;stroke-dasharray:none;stroke-dashoffset:0;stroke-opacity:1"
           d="m 135,982.36216 c -19.32998,0 -35.000022,15.67006 -35,35.00004 0,19.33 15.67003,35 35,35 14.52443,-0.019 387.95047,-0.01 402.48633,0 19.32997,0 35,-15.67 35,-35 2e-5,-19.32998 -15.67002,-35.00004 -35,-35.00004 -15.63542,0.0141 -386.84294,0.005 -402.48633,0 z"
           id="circle3975"
           inkscape:connector-curvature="0"
           sodipodi:nodetypes="csccscc" />
      </g>
      <path
         d="m 2134.282,667.69131 q -1.5935,-5.31164 0.5312,-10.09212 2.6558,-4.78049 7.9675,-6.37398 5.3116,-1.59349 10.0921,1.06233 4.7805,2.12466 5.8428,6.90513 10.0921,31.33871 36.1192,50.99179 26.5581,19.12191 59.4904,18.59075 41.4308,0 70.6448,-29.21404 29.7452,-29.21405 29.7452,-70.64486 l 0,-233.18116 q 0,-5.31165 3.7182,-9.0298 3.7181,-3.71815 9.0298,-3.71815 5.3116,0 9.0298,3.71815 3.7181,3.71815 3.7181,9.0298 l 0,233.18116 q 0,52.58528 -37.1815,89.23561 -36.6503,36.65035 -88.7044,36.65035 -41.4308,0 -74.8942,-24.43357 -32.9322,-24.43356 -45.149,-62.67739 z"
         id="path4927"
         inkscape:connector-curvature="0"
         style="font-style:normal;font-variant:normal;font-weight:normal;font-stretch:normal;font-size:medium;line-height:125%;font-family:Quicksand;-inkscape-font-specification:'Quicksand, Normal';text-align:start;letter-spacing:0px;word-spacing:0px;writing-mode:lr-tb;text-anchor:start;fill:#000000;fill-opacity:1;stroke:none;stroke-width:1px;stroke-linecap:butt;stroke-linejoin:miter;stroke-opacity:1" />
      <path
         d="m 2498.5286,716.55837 q -36.1192,-38.77507 -36.1192,-91.8916 0,-53.11653 36.1192,-91.36043 36.1192,-38.77507 87.1111,-38.77507 50.9919,0 87.1111,38.77507 36.1193,38.2439 36.1193,91.36043 0,53.11653 -36.1193,91.8916 -36.1192,38.2439 -87.1111,38.2439 -50.9919,0 -87.1111,-38.2439 z m 87.1111,-197.06233 q -39.8374,0 -69.0515,30.80759 -28.6829,30.80759 -28.6829,74.36314 0,43.02439 28.6829,73.83198 29.2141,30.80758 69.0515,30.80758 39.8374,0 68.5203,-30.80758 29.2141,-30.80759 29.2141,-73.83198 0,-43.55555 -29.2141,-74.36314 -28.6829,-30.80759 -68.5203,-30.80759 z"
         id="path4929"
         inkscape:connector-curvature="0"
         style="font-style:normal;font-variant:normal;font-weight:normal;font-stretch:normal;font-size:medium;line-height:125%;font-family:Quicksand;-inkscape-font-specification:'Quicksand, Normal';text-align:start;letter-spacing:0px;word-spacing:0px;writing-mode:lr-tb;text-anchor:start;fill:#000000;fill-opacity:1;stroke:none;stroke-width:1px;stroke-linecap:butt;stroke-linejoin:miter;stroke-opacity:1" />
      <path
         d="m 2831.5692,744.17896 q -2.6558,10.62331 -12.2168,10.62331 l -3.1869,0 q -5.8429,-1.5935 -8.4987,-6.90515 -0.5312,-0.53117 -0.5312,-1.5935 l -0.5311,-1.06233 0,-237.43088 q 0,-5.31166 3.7181,-9.02981 3.7182,-3.71816 9.0298,-3.71816 5.3117,0 8.4987,3.71816 3.7181,3.71815 3.7181,9.02981 l 0,24.96476 q 31.3388,-37.71273 77.5502,-37.71273 46.7425,0 77.5501,31.33875 31.3388,30.80759 31.3388,74.36314 l 0,141.28997 q 0,5.31165 -3.7182,9.02981 -3.7181,3.71816 -9.0298,3.71816 -5.3117,0 -9.0298,-3.71816 -3.7182,-3.71816 -3.7182,-9.02981 l 0,-141.28997 q 0,-32.93225 -23.3712,-56.30352 -23.3713,-23.90244 -56.8347,-23.90244 -32.9323,0 -56.3035,23.37128 -23.3713,23.37127 -24.4337,56.83468 l 0,143.41463 z"
         id="path4931"
         inkscape:connector-curvature="0"
         style="font-style:normal;font-variant:normal;font-weight:normal;font-stretch:normal;font-size:medium;line-height:125%;font-family:Quicksand;-inkscape-font-specification:'Quicksand, Normal';text-align:start;letter-spacing:0px;word-spacing:0px;writing-mode:lr-tb;text-anchor:start;fill:#000000;fill-opacity:1;stroke:none;stroke-width:1px;stroke-linecap:butt;stroke-linejoin:miter;stroke-opacity:1" />
      <path
         d="m 3220.5316,754.80227 -70.645,0 q -4.7805,-0.53117 -8.4987,-3.71816 -3.187,-3.71816 -3.187,-9.02981 l 0,-346.31977 q 0,-5.31165 3.7182,-9.02981 3.7182,-3.71816 9.0298,-3.71816 l 69.5827,0 q 77.0189,0 131.1978,54.71003 54.71,54.71002 54.71,131.72899 0,77.01897 -54.71,131.19783 -54.1789,54.17886 -131.1978,54.17886 z m -56.3036,-26.0271 56.3036,0 q 66.3956,0 113.1382,-46.74255 46.7425,-46.74254 46.7425,-112.60704 0,-66.39566 -46.7425,-113.13821 -46.7426,-46.74254 -113.1382,-47.27371 l -56.3036,0 0,319.76151 z"
         id="path4933"
         inkscape:connector-curvature="0"
         style="font-style:normal;font-variant:normal;font-weight:normal;font-stretch:normal;font-size:medium;line-height:125%;font-family:Quicksand;-inkscape-font-specification:'Quicksand, Normal';text-align:start;letter-spacing:0px;word-spacing:0px;writing-mode:lr-tb;text-anchor:start;fill:#000000;fill-opacity:1;stroke:none;stroke-width:1px;stroke-linecap:butt;stroke-linejoin:miter;stroke-opacity:1" />
      <path
         d="m 3538.0356,716.55837 q -36.1192,-38.77507 -36.1192,-91.8916 0,-53.11653 36.1192,-91.36043 36.1193,-38.77507 87.1111,-38.77507 50.9919,0 87.1111,38.77507 36.1193,38.2439 36.1193,91.36043 0,53.11653 -36.1193,91.8916 -36.1192,38.2439 -87.1111,38.2439 -50.9918,0 -87.1111,-38.2439 z m 87.1111,-197.06233 q -39.8374,0 -69.0515,30.80759 -28.6829,30.80759 -28.6829,74.36314 0,43.02439 28.6829,73.83198 29.2141,30.80758 69.0515,30.80758 39.8374,0 68.5203,-30.80758 29.2141,-30.80759 29.2141,-73.83198 0,-43.55555 -29.2141,-74.36314 -28.6829,-30.80759 -68.5203,-30.80759 z"
         id="path4935"
         inkscape:connector-curvature="0"
         style="font-style:normal;font-variant:normal;font-weight:normal;font-stretch:normal;font-size:medium;line-height:125%;font-family:Quicksand;-inkscape-font-specification:'Quicksand, Normal';text-align:start;letter-spacing:0px;word-spacing:0px;writing-mode:lr-tb;text-anchor:start;fill:#000000;fill-opacity:1;stroke:none;stroke-width:1px;stroke-linecap:butt;stroke-linejoin:miter;stroke-opacity:1" />
      <path
         d="m 3924.1928,494.53127 q 4.7805,0 8.4986,4.24933 4.2493,3.71815 4.2493,8.49864 0,4.78049 -4.2493,9.02981 -3.7181,3.71816 -8.4986,3.71816 l -33.4634,0 0,189.62601 q 0,8.49864 6.374,13.81029 6.9051,5.31166 12.2168,5.31166 5.3116,0 9.5609,4.24932 4.2494,4.24932 4.2494,9.02981 0,4.78049 -4.2494,9.02981 -4.2493,3.71816 -9.0298,3.71816 -19.6531,0 -32.9322,-12.74797 -12.748,-12.74797 -12.748,-32.40108 l 0,-189.62601 -32.4011,0 q -8.4986,0 -10.6233,-3.18699 -2.1246,-3.187 -2.1246,-8.49865 0,-5.31165 0.5311,-7.43631 1.5935,-6.37399 12.2168,-6.37399 l 32.4011,0 0,-96.67208 q 0,-4.78049 3.7182,-8.49865 4.2493,-4.24932 9.0298,-4.24932 5.3116,0 9.5609,4.24932 4.2494,3.71816 4.2494,8.49865 l 0,96.67208 33.4634,0 z"
         id="path4937"
         inkscape:connector-curvature="0"
         style="font-style:normal;font-variant:normal;font-weight:normal;font-stretch:normal;font-size:medium;line-height:125%;font-family:Quicksand;-inkscape-font-specification:'Quicksand, Normal';text-align:start;letter-spacing:0px;word-spacing:0px;writing-mode:lr-tb;text-anchor:start;fill:#000000;fill-opacity:1;stroke:none;stroke-width:1px;stroke-linecap:butt;stroke-linejoin:miter;stroke-opacity:1" />
      <path
         d="m 4042.3189,717.6207 q -9.0298,-7.96748 -1.5935,-16.99729 3.187,-4.24933 8.4987,-4.78049 5.3116,-0.53117 9.561,3.18699 41.4308,30.27642 75.4254,30.27642 33.9946,0 53.6477,-15.93496 19.6531,-13.27913 19.122,-30.80758 0,-18.05962 -17.5285,-31.86992 -16.9973,-13.8103 -55.7723,-20.18428 l -1.0624,-0.53117 q -41.4309,-7.43631 -58.9593,-20.18428 -28.1518,-16.46612 -28.1518,-46.74254 0,-30.27643 28.1518,-50.99187 25.4959,-17.52846 63.7398,-17.52846 15.4038,0 30.8076,5.31166 15.935,4.78048 23.9024,9.56097 8.4987,4.24932 22.8401,13.27913 4.2494,3.187 5.3117,8.49865 1.0623,5.31165 -1.5935,9.56097 -2.6558,4.24933 -7.9675,5.31166 -5.3116,1.06233 -9.5609,-1.5935 -13.2792,-9.02981 -20.1843,-12.74797 -6.374,-4.24932 -19.122,-8.49864 -12.7479,-4.78049 -24.4336,-4.78049 -30.8076,0 -48.336,14.34146 -17.5285,13.8103 -17.5285,29.2141 0,15.40379 14.8726,27.08943 18.5908,12.74796 53.1166,18.05962 l 1.0623,0 q 34.5258,5.31165 63.2087,21.24661 29.2141,19.12195 29.2141,51.52303 0,31.86992 -29.2141,53.64769 -28.6829,21.24662 -65.3334,21.24662 -50.4607,-0.53117 -96.1409,-37.18157 z"
         id="path4939"
         inkscape:connector-curvature="0"
         style="font-style:normal;font-variant:normal;font-weight:normal;font-stretch:normal;font-size:medium;line-height:125%;font-family:Quicksand;-inkscape-font-specification:'Quicksand, Normal';text-align:start;letter-spacing:0px;word-spacing:0px;writing-mode:lr-tb;text-anchor:start;fill:#000000;fill-opacity:1;stroke:none;stroke-width:1px;stroke-linecap:butt;stroke-linejoin:miter;stroke-opacity:1" />
      <path
         d="m 4344.1206,716.55837 q -36.1193,-38.77507 -36.1193,-91.8916 0,-53.11653 36.1193,-91.36043 36.1192,-38.77507 87.1111,-38.77507 50.9918,0 87.1111,38.77507 36.1192,38.2439 36.1192,91.36043 0,53.11653 -36.1192,91.8916 -36.1193,38.2439 -87.1111,38.2439 -50.9919,0 -87.1111,-38.2439 z m 87.1111,-197.06233 q -39.8374,0 -69.0515,30.80759 -28.683,30.80759 -28.683,74.36314 0,43.02439 28.683,73.83198 29.2141,30.80758 69.0515,30.80758 39.8374,0 68.5203,-30.80758 29.2141,-30.80759 29.2141,-73.83198 0,-43.55555 -29.2141,-74.36314 -28.6829,-30.80759 -68.5203,-30.80759 z"
         id="path4941"
         inkscape:connector-curvature="0"
         style="font-style:normal;font-variant:normal;font-weight:normal;font-stretch:normal;font-size:medium;line-height:125%;font-family:Quicksand;-inkscape-font-specification:'Quicksand, Normal';text-align:start;letter-spacing:0px;word-spacing:0px;writing-mode:lr-tb;text-anchor:start;fill:#000000;fill-opacity:1;stroke:none;stroke-width:1px;stroke-linecap:butt;stroke-linejoin:miter;stroke-opacity:1" />
      <path
         d="m 4830.668,494.53127 q 11.1544,2.65583 11.1544,12.2168 l 0,227.33875 q 0,50.99187 -36.1192,86.57994 -36.1192,35.58808 -87.6423,35.58808 -26.5582,0 -53.6477,-12.2168 -10.6233,-6.90515 -5.8428,-16.99729 5.3117,-9.56098 16.9973,-6.37399 20.1843,10.09214 42.4932,10.09214 40.3686,0 69.0515,-28.15176 28.6829,-28.15176 29.2141,-68.52032 l 0,-16.99729 q -32.9322,37.18157 -78.6125,37.18157 -45.6802,-0.53116 -76.4878,-31.33875 -30.8076,-31.33875 -30.8076,-74.89431 l 0,-141.28997 q 0,-5.31165 3.7182,-8.49864 3.7182,-3.71816 9.0298,-3.71816 5.3117,0 9.0298,3.71816 3.7182,3.18699 3.7182,8.49864 l 0,141.28997 q 0,33.46342 23.3713,56.83469 23.3712,23.37127 56.3035,23.37127 33.4634,0 56.8347,-23.37127 23.3712,-23.37127 23.9024,-56.83469 l 0,-141.28997 q 0,-4.24932 1.0623,-5.31165 1.0624,-1.06233 1.5935,-1.59349 0.5312,-1.06233 0.5312,-1.06233 0,-2.12467 5.3116,-3.71816 l 1.0624,0 q 1.0623,-0.53117 1.5935,-0.53117 l 3.187,0 z"
         id="path4943"
         inkscape:connector-curvature="0"
         style="font-style:normal;font-variant:normal;font-weight:normal;font-stretch:normal;font-size:medium;line-height:125%;font-family:Quicksand;-inkscape-font-specification:'Quicksand, Normal';text-align:start;letter-spacing:0px;word-spacing:0px;writing-mode:lr-tb;text-anchor:start;fill:#000000;fill-opacity:1;stroke:none;stroke-width:1px;stroke-linecap:butt;stroke-linejoin:miter;stroke-opacity:1" />
    </g>
  </g>
</svg>
