<?xml version="1.0" encoding="utf-8"?>
<!-- Generator: Adobe Illustrator 16.0.0, SVG Export Plug-In . SVG Version: 6.00 Build 0)  -->
<!DOCTYPE svg PUBLIC "-//W3C//DTD SVG 1.1//EN" "http://www.w3.org/Graphics/SVG/1.1/DTD/svg11.dtd">
<svg version="1.1" id="Layer_1" xmlns="http://www.w3.org/2000/svg" xmlns:xlink="http://www.w3.org/1999/xlink" x="0px" y="0px"
	 width="250px" height="250px" viewBox="0 0 250 250" enable-background="new 0 0 250 250" xml:space="preserve">
<path fill="#F0543F" d="M246.038,119.518c-1.614-1.816-23.947-29.77-27.88-34.511c-3.937-4.743-5.854-3.886-8.277-3.533
	c-2.422,0.354-30.677,5.097-33.957,5.652c-3.279,0.555-5.348,1.866-3.329,4.693c1.794,2.513,20.369,28.846,24.46,34.646
	l-73.846,17.691L64.478,45.966c-2.338-3.466-2.824-4.677-8.145-4.437c-5.321,0.242-46.071,3.628-48.974,3.87
	c-2.902,0.243-6.087,1.534-3.185,8.387c2.901,6.852,49.182,106.582,50.472,109.483c1.289,2.902,4.643,7.611,12.495,5.724
	c8.046-1.932,35.946-9.214,51.19-13.208c8.056,14.589,24.484,44.179,27.522,48.419c4.057,5.66,6.848,4.723,13.076,2.837
	c4.86-1.473,76.076-27.084,79.284-28.403c3.208-1.32,5.189-2.266,3.02-5.474c-1.595-2.357-20.384-27.525-30.223-40.693
	c6.74-1.793,30.704-8.173,33.261-8.865C247.247,122.799,247.651,121.335,246.038,119.518z M111.785,146.967
	c-0.882,0.189-42.245,10.089-44.451,10.594c-2.208,0.504-2.208,0.252-2.459-0.505c-0.252-0.757-49.178-101.639-49.857-102.901
	c-0.679-1.261-0.644-2.26,0-2.26s39.062-3.435,40.421-3.506c1.36-0.071,1.217,0.215,1.717,1.074c0,0,54.189,93.534,55.134,95.172
	C113.235,146.273,112.667,146.778,111.785,146.967z M228.404,168.825c0.659,1.038,1.318,1.699-0.757,2.453
	c-2.073,0.755-70.001,23.68-71.322,24.246c-1.32,0.566-2.358,0.754-4.056-1.698c-1.698-2.453-23.799-40.699-23.799-40.699
	l72.007-18.736c1.792-0.566,2.359-0.943,3.492,0.849C205.1,137.032,227.744,167.788,228.404,168.825z M233.02,117.701
	c-1.614,0.354-28.055,6.914-28.055,6.914l-21.622-29.669c-0.607-0.857-1.112-1.716,0.401-1.918
	c1.514-0.201,26.088-4.642,27.198-4.894c1.109-0.252,2.069-0.555,3.431,1.312c1.362,1.868,20.06,25.531,20.765,26.439
	C235.846,116.794,234.634,117.349,233.02,117.701z"/>
</svg>
