<svg xmlns="http://www.w3.org/2000/svg" width="300" height="300" viewBox="0 0 300 300"><path fill="#3AAAE1" d="M296 59.441c-10.743 4.765-22.289 7.985-34.407 9.433 12.367-7.414 21.867-19.154 26.34-33.144-11.575 6.866-24.396 11.851-38.042 14.538-10.928-11.643-26.497-18.917-43.728-18.917-33.084 0-59.908 26.822-59.908 59.906 0 4.695.529 9.268 1.551 13.652-49.788-2.499-93.931-26.349-123.477-62.594-5.157 8.848-8.111 19.138-8.111 30.118 0 20.784 10.576 39.121 26.651 49.864-9.82-.312-19.058-3.006-27.134-7.493l-.006.753c0 29.025 20.65 53.237 48.055 58.742-5.026 1.369-10.319 2.102-15.783 2.102-3.86 0-7.613-.376-11.271-1.075 7.624 23.8 29.748 41.121 55.963 41.604-20.503 16.068-46.334 25.646-74.402 25.646-4.835 0-9.604-.284-14.291-.839 26.512 16.998 58.001 26.917 91.833 26.917 110.191 0 170.449-91.285 170.449-170.45 0-2.597-.059-5.181-.174-7.75 11.704-8.449 21.861-18.999 29.892-31.013z"/></svg>